<svg version="1.1" id="MWDLOGO" xmlns="http://www.w3.org/2000/svg" xmlns:xlink="http://www.w3.org/1999/xlink" x="0px" y="0px"
	width="1000px" height="1000px" viewBox="0 0 1000 1000" enable-background="new 0 0 1000 1000" xml:space="preserve">
<g>
	<path d="M500.5,67.551l433.085,433.085L500.5,933.721L67.415,500.636L500.5,67.551 M500.5,2.272L2.136,500.636L500.5,999
		l498.364-498.364L500.5,2.272L500.5,2.272z"/>
</g>
<g>
	<path d="M707.779,143.196l206.319,357.356L707.779,857.905H295.14L88.822,500.552l206.32-357.356H707.779 M718.506,124.617H284.415
		L67.369,500.552l217.045,375.932h434.092l217.046-375.932L718.506,124.617L718.506,124.617z"/>
</g>
<g>
	<polygon points="139.014,709.74 139.014,293.667 499.347,85.629 859.678,293.668 859.678,709.742 499.347,917.778 	"/>
	<path fill="#FFFFFF" d="M499.347,98.954l348.791,201.376v402.749L499.347,904.453L150.554,703.078V300.33L499.347,98.954
		M499.347,72.304L127.474,287.004v429.399l371.873,214.7l371.871-214.699V287.005L499.347,72.304L499.347,72.304z"/>
</g>
<line fill="none" stroke="#FFFFFF" stroke-width="23.0797" stroke-miterlimit="10" x1="151.997" y1="296.224" x2="501.654" y2="497.174"/>
<line fill="none" stroke="#FFFFFF" stroke-width="23.0797" stroke-miterlimit="10" x1="488.96" y1="502.787" x2="851.312" y2="297.378"/>
<line fill="none" stroke="#FFFFFF" stroke-width="20" stroke-miterlimit="10" x1="946" y1="1263" x2="942" y2="1263"/>
<line fill="none" stroke="#FFFFFF" stroke-width="23.0797" stroke-miterlimit="10" x1="499.346" y1="495.863" x2="499.346" y2="913.605"/>
</svg>
